<svg data-v-0dd9719b="" version="1.0" xmlns="http://www.w3.org/2000/svg" xmlns:xlink="http://www.w3.org/1999/xlink" width="100%" height="100%" viewBox="0 0 340.000000 250.000000" preserveAspectRatio="xMidYMid meet" color-interpolation-filters="sRGB" style="margin: auto;"> <rect data-v-0dd9719b="" x="0" y="0" width="100%" height="100%" fill="#fff" fill-opacity="1" class="background"></rect> <rect data-v-0dd9719b="" x="0" y="0" width="100%" height="100%" fill="url(#watermark)" fill-opacity="1" class="watermarklayer"></rect> <g data-v-0dd9719b="" fill="#3699ea" class="icon-text-wrapper icon-svg-group iconsvg" transform="translate(48.08000183105469,96.06342697143555)"><g class="iconsvg-imagesvg" transform="translate(0,0.6141109466552734)"><g><rect fill="#3699ea" fill-opacity="0" stroke-width="2" x="0" y="0" width="60" height="56.644921310763486" class="image-rect"></rect> <svg x="0" y="0" width="60" height="56.644921310763486" filtersec="colorsb7067297518" class="image-svg-svg primary" style="overflow: visible;"><svg xmlns="http://www.w3.org/2000/svg" viewBox="-0.003525275969877839 -0.0038033658638596535 264.3553466796875 249.5738983154297"><g><g fill="#3699ea"><path d="M88.26 14.26a19 19 0 0 0 18.69 5.47l65.67-17a1.38 1.38 0 0 0-.37-2.73L87.36 1a5 5 0 0 0-3.63 8.44zM204.69 14.78a10.81 10.81 0 0 0-14-7l-65.62 23.58a5.34 5.34 0 0 0-.92 9.62l98.48 58.41a4.39 4.39 0 0 0 6.43-5.06zM103 177.28a6.6 6.6 0 0 0 9.88 5.69l99.32-57.07.09-.05a6.62 6.62 0 0 0 .08-11.44L112.1 54.94a6.42 6.42 0 0 0-9.7 5.55zM263.73 136.83a5.62 5.62 0 0 0-5.94-8.11 18.67 18.67 0 0 0-14.57 12.6l-27.67 85.05a.92.92 0 0 0 1.69.7zM258.31 113.62a4.34 4.34 0 0 0 4.7-6.3L217.6 22.4a.76.76 0 0 0-1.39.63L246 103.09a16.74 16.74 0 0 0 12.31 10.53zM75.55 180.29a5.87 5.87 0 0 0 9.24-4.84l-.53-112.18A5.5 5.5 0 0 0 75.34 59L3.2 116.43A8.46 8.46 0 0 0 3.62 130zM2.32 99.68a1.64 1.64 0 0 0 2.53 2l66.77-62a11.35 11.35 0 0 0 .6-16l-7.49-8.08A8.45 8.45 0 0 0 51.25 17zM107.85 219.33a15.23 15.23 0 0 0-17.45 5.08l-10.09 13.38a5.83 5.83 0 0 0 4.51 9.35l93.49 2.43a1.9 1.9 0 0 0 .71-3.67zM226.49 147.65a4.73 4.73 0 0 0-6.94-5.3l-95.85 55.31a5.83 5.83 0 0 0 .5 10.36l66.92 30.4a9.55 9.55 0 0 0 13.2-6.28zM74.21 215.48a11.75 11.75 0 0 0-2.06-16.19L6 146.19a2.07 2.07 0 0 0-3.08 2.67l47.64 80.84a7.54 7.54 0 0 0 12.54.68z"></path></g></g></svg></svg> <!----></g></g> <g transform="translate(67,0)"><g data-gra="path-name" fill-rule="" class="tp-name iconsvg-namesvg" transform="translate(0,0)"><g transform="scale(1)"><g><path d="M20.39-27.95L20.39-37.27 25.14-35.16Q25.14-34.98 24.43-34.63L24.43-34.63Q23.55-33.93 23.38-33.57L23.38-33.57 23.38-27.95 36.04-27.95 38.32-30.94 42.36-27.25 42.19-26.89 23.38-26.89 23.38-18.98 32.7-18.98 34.98-22.15 38.85-18.28 38.85-18.11 7.38-18.11 5.63-17.58 4.75-18.98 20.39-18.98 20.39-26.89 4.39-26.89 2.46-26.54 1.58-27.95 20.39-27.95ZM31.64-14.06L31.64-14.06Q35.33-11.43 35.16-11.07L35.16-11.07Q35.16-10.9 34.63-10.55L34.63-10.55Q33.93-10.02 33.4-9.49L33.4-9.49Q33.93 0 34.1 2.99L34.1 2.99Q33.4 4.04 30.76 4.57L30.76 4.57 30.76 0.18 13.18 0.18 13.18 4.22Q11.78 5.45 9.84 5.63L9.84 5.63Q10.55-7.73 10.37-13.54L10.37-13.54Q10.37-13.54 11.78-12.83L11.78-12.83Q13.71-11.95 14.06-11.95L14.06-11.95 29.71-11.95Q31.11-13.54 31.64-14.06ZM30.76-10.9L15.29-10.9Q15.29-10.9 15.12-10.9L15.12-10.9Q13.18-11.07 13.18-9.49L13.18-9.49 13.18-0.88 30.76-0.88 30.76-10.9ZM73.48-36.74L73.48-36.74Q77.87-35.33 78.05-34.98L78.05-34.98Q78.05-34.98 77.34-34.28L77.34-34.28Q76.46-33.57 76.46-33.4L76.46-33.4 76.46-25.84 82.62-25.84 84.55-28.48 88.24-24.96 88.07-24.79 78.05-24.79Q80.51-10.72 88.95-4.57L88.95-4.57 88.95-4.04Q85.78-4.39 84.9-3.16L84.9-3.16Q84.73-2.99 84.73-2.99L84.73-2.99Q78.4-12.13 77.17-24.79L77.17-24.79 76.46-24.79 76.46 4.04Q75.41 4.75 73.13 5.27L73.13 5.27Q73.65-3.34 73.65-21.27L73.65-21.27Q69.08-10.02 60.47-2.11L60.47-2.11 60.12-2.64Q68.38-11.6 72.25-24.79L72.25-24.79 69.26-24.79 67.32-24.43 66.45-25.84 73.65-25.84Q73.83-34.8 73.48-36.74ZM56.43-25.84L56.43-36.56Q60.82-34.98 60.82-34.98L60.82-34.98Q60.82-34.98 60.12-34.45L60.12-34.45Q59.06-33.57 59.06-33.4L59.06-33.4 59.06-25.84 61.7-25.84 63.46-28.13 66.45-24.96 66.27-24.79 59.06-24.79 59.06-19.86Q64.51-17.75 65.57-15.47L65.57-15.47Q66.27-12.48 63.98-11.78L63.98-11.78Q63.63-11.78 63.28-13.01L63.28-13.01Q61.88-17.23 58.89-18.63L58.89-18.63Q58.71-11.78 58.54 3.69L58.54 3.69Q57.48 4.75 55.55 4.92L55.55 4.92Q56.25-9.14 56.43-19.34L56.43-19.34Q52.73-10.2 45.7-3.34L45.7-3.34 45.18-3.87Q52.21-11.95 55.9-24.79L55.9-24.79 50.1-24.79 47.99-24.26 47.11-25.84 56.43-25.84ZM110.39-28.3L110.39-36.56Q111.97-36.21 114.96-34.8L114.96-34.8Q114.96-34.8 114.08-33.93L114.08-33.93Q113.38-33.05 113.2-32.87L113.2-32.87 113.2-28.3 123.4-28.3 125.68-31.11 129.9-27.77 129.73-27.42 113.2-27.42 113.2-18.63 121.64-18.63 123.57-20.92 127.44-17.93 127.27-17.58 113.2-17.58 113.2-8.79 126.56-8.79 128.85-11.43 132.71-8.09 132.54-7.73 113.2-7.73 113.55 4.04Q111.97 5.1 110.21 5.27L110.21 5.27 110.39-7.73 95.63-7.73 93.34-7.38 92.11-8.79 110.39-8.79 110.39-17.58 100.37-17.58 97.73-17.23 96.86-18.63 110.39-18.63 110.39-27.42 97.56-27.42 95.27-26.72 94.22-28.3 110.39-28.3ZM148.18-37.27L148.18-37.27 151.88-34.98Q151.88-34.98 151.52-34.8L151.52-34.8Q150.47-34.63 149.59-34.1L149.59-34.1Q148.54-33.4 144.84-30.23L144.84-30.23Q145.02-30.41 144.49-29.88L144.49-29.88Q148.71-28.48 149.94-27.42L149.94-27.42Q150.47-25.84 149.77-24.43L149.77-24.43Q149.06-23.55 148.18-24.79L148.18-24.79Q146.43-27.25 142.73-29.71L142.73-29.71Q146.43-33.93 148.18-37.27ZM157.5-37.09L157.5-37.09 161.19-34.8Q161.02-34.63 160.49-34.45L160.49-34.45Q159.79-34.45 159.43-34.28L159.43-34.28Q158.91-33.93 156.09-31.29L156.09-31.29Q155.21-30.41 154.69-30.06L154.69-30.06Q159.26-28.65 160.14-27.6L160.14-27.6Q160.66-26.37 159.79-24.79L159.79-24.79Q158.91-23.91 158.2-25.14L158.2-25.14Q157.5-26.37 152.75-29.88L152.75-29.88Q155.92-33.75 157.5-37.09ZM168.4-36.56L168.4-36.56 172.09-34.63Q171.91-34.45 171.39-34.28L171.39-34.28Q170.68-34.1 169.98-33.75L169.98-33.75Q169.63-33.57 168.05-32.52L168.05-32.52Q165.94-31.11 164.36-30.06L164.36-30.06Q168.57-29.36 170.68-28.3L170.68-28.3Q171.74-27.25 171.21-25.49L171.21-25.49Q170.68-24.08 169.63-25.31L169.63-25.31Q167.87-27.42 162.6-30.06L162.6-30.06Q166.46-33.93 168.4-36.56ZM168.4-24.79L168.4-24.79Q171.21-23.03 171.74-22.5L171.74-22.5Q171.74-22.5 171.21-21.8L171.21-21.8Q170.16-20.92 170.16-20.74L170.16-20.74 170.51-11.43Q169.45-9.84 167.52-10.2L167.52-10.2 167.52-11.95 158.55-11.95 158.55-8.44 171.74-8.44 174.02-11.07 177.54-7.56 177.36-7.38 160.31-7.38Q165.94-0.88 178.42 0.35L178.42 0.35 178.42 0.88Q175.08 1.23 173.67 2.99L173.67 2.99Q173.5 3.34 173.32 3.34L173.32 3.34Q163.13-0.53 158.91-7.38L158.91-7.38 158.55-7.38 158.55 4.57Q157.32 5.8 155.39 5.63L155.39 5.63 155.74-6.68Q147.48 1.41 136.58 4.92L136.58 4.92 136.23 4.22Q146.07 0.18 152.58-7.38L152.58-7.38 139.39-7.38 137.64-6.68 136.05-8.44 155.92-8.44 155.92-11.95 146.78-11.95 146.78-11.07Q145.55-10.37 144.14-10.55L144.14-10.55 144.14-24.61 147.3-23.2 166.99-23.2Q166.99-23.2 167.34-23.55L167.34-23.55Q168.22-24.79 168.4-24.79ZM155.92-18.11L155.92-22.15 148.01-22.15Q146.78-22.32 146.95-21.27L146.95-21.27 146.95-18.11 155.92-18.11ZM167.52-22.15L158.55-22.15 158.55-18.11 167.52-18.11 167.52-22.15ZM155.92-13.01L155.92-17.05 146.78-17.05 146.78-13.01 155.92-13.01ZM167.52-13.01L167.52-17.05 158.55-17.05 158.55-13.01 167.52-13.01Z" transform="translate(-1.5799999237060547, 37.27000045776367)"></path></g> <!----> <!----> <!----> <!----> <!----> <!----> <!----></g></g> <g data-gra="path-slogan" fill-rule="" class="tp-slogan iconsvg-slogansvg" fill="#3699ea" transform="translate(5,48.9206428527832)"><rect x="0" height="1" y="3.9750003814697266" width="31.25"></rect> <rect height="1" y="3.9750003814697266" width="31.25" x="135.58999633789062"></rect> <g transform="translate(34.25,0)"><g transform="scale(1)"><path d="M0.19-1.92L0.19-2.77L1.27-2.77L1.27-2.16Q1.27-0.75 2.58-0.75L2.58-0.75Q3.94-0.75 3.94-2.25L3.94-2.25L3.94-8.58L5.11-8.58L5.11-2.30Q5.06 0.09 2.63 0.14L2.63 0.14Q0.33 0.09 0.19-1.92L0.19-1.92ZM7.08-8.58L8.25-8.58L8.25 0L7.08 0L7.08-8.58ZM10.22-8.58L11.39-8.58L11.39-1.03L15.75-1.03L15.75 0L10.22 0L10.22-8.58ZM17.06-8.58L18.23-8.58L18.23 0L17.06 0L17.06-8.58ZM21.61-8.58L25.92-1.64L25.92-8.58L27.05-8.58L27.05 0L25.73 0L21.38-6.94L21.33-6.94L21.33 0L20.20 0L20.20-8.58L21.61-8.58ZM37.69-3.89L33.47-3.89L33.47 0L32.30 0L32.30-8.58L38.25-8.58L38.25-7.59L33.47-7.59L33.47-4.92L37.69-4.92L37.69-3.89ZM40.73-1.03L45.89-1.03L45.89 0L39.56 0L39.56-8.58L45.80-8.58L45.80-7.59L40.73-7.59L40.73-4.92L45.42-4.92L45.42-3.89L40.73-3.89L40.73-1.03ZM48.80-8.58L53.11-1.64L53.11-8.58L54.23-8.58L54.23 0L52.92 0L48.56-6.94L48.52-6.94L48.52 0L47.39 0L47.39-8.58L48.80-8.58ZM62.44-3.61L59.81-3.61L59.81-4.59L63.56-4.59L63.56 0L62.81 0L62.53-1.08Q61.55 0.09 59.72 0.14L59.72 0.14Q57.98 0.14 57.05-0.75L57.05-0.75Q55.64-2.06 55.69-4.36L55.69-4.36Q56.02-8.63 59.77-8.81L59.77-8.81Q62.95-8.63 63.42-6L63.42-6L62.30-6Q61.83-7.78 59.72-7.83L59.72-7.83Q57.05-7.64 56.91-4.31L56.91-4.31Q56.91-0.75 59.77-0.75L59.77-0.75Q60.80-0.75 61.55-1.31L61.55-1.31Q62.48-2.06 62.44-3.61L62.44-3.61ZM72.52-6.05L72.52-6.05L71.39-6.05Q70.97-7.78 69-7.83L69-7.83Q66.28-7.69 66.19-4.36L66.19-4.36Q66.19-0.80 69.05-0.80L69.05-0.80Q71.02-0.84 71.48-3.19L71.48-3.19L72.61-3.19Q72.09 0.05 68.81 0.14L68.81 0.14Q65.06 0 64.97-4.31L64.97-4.31Q65.16-8.63 69-8.81L69-8.81Q72.05-8.72 72.52-6.05ZM75.14-5.06L79.64-5.06L79.64-8.58L80.81-8.58L80.81 0L79.64 0L79.64-3.98L75.14-3.98L75.14 0L73.97 0L73.97-8.58L75.14-8.58L75.14-5.06ZM88.27 0L87.42-2.48L83.95-2.48L83.06 0L81.89 0L85.13-8.58L86.44-8.58L89.53 0L88.27 0ZM85.69-7.31L84.33-3.52L87-3.52L85.73-7.31L85.69-7.31ZM97.36-4.27L97.36-4.27Q97.17-7.64 94.36-7.83L94.36-7.83Q91.50-7.69 91.36-4.27L91.36-4.27Q91.50-0.94 94.36-0.80L94.36-0.80Q97.17-0.98 97.36-4.27ZM98.53-4.27L98.53-4.27Q98.25 0 94.36 0.14L94.36 0.14Q90.42 0 90.14-4.27L90.14-4.27Q90.38-8.72 94.36-8.81L94.36-8.81Q98.25-8.67 98.53-4.27Z" transform="translate(-0.1875, 8.8125)"></path></g></g></g></g></g><defs v-gra="od"></defs></svg>